<svg width="512" height="512" viewBox="0 0 512 512" fill="none" xmlns="http://www.w3.org/2000/svg" role="img" aria-labelledby="title desc">
  <title id="title">localhost 5173 cute port icon</title>
  <desc id="desc">A cute app icon for local development port 5173.</desc>
  <rect width="512" height="512" rx="112" fill="#F8FBFF"/>
  <rect x="28" y="28" width="456" height="456" rx="96" fill="#FFFFFF" stroke="#DCE7F6" stroke-width="10"/>

  <path d="M116 298C90 298 70 278 70 252C70 226 90 206 116 206H168" stroke="#7C9FEE" stroke-width="22" stroke-linecap="round"/>
  <path d="M396 206C422 206 442 226 442 252C442 278 422 298 396 298H344" stroke="#7C9FEE" stroke-width="22" stroke-linecap="round"/>

  <rect x="142" y="146" width="228" height="220" rx="42" fill="#2563EB"/>
  <rect x="162" y="172" width="188" height="168" rx="28" fill="#EAF2FF"/>

  <circle cx="218" cy="238" r="12" fill="#172033"/>
  <circle cx="294" cy="238" r="12" fill="#172033"/>
  <path d="M226 286C242 302 270 302 286 286" stroke="#172033" stroke-width="12" stroke-linecap="round"/>
  <circle cx="192" cy="266" r="14" fill="#FFB4C6" opacity="0.9"/>
  <circle cx="320" cy="266" r="14" fill="#FFB4C6" opacity="0.9"/>

  <rect x="181" y="91" width="34" height="68" rx="14" fill="#2563EB"/>
  <rect x="297" y="91" width="34" height="68" rx="14" fill="#2563EB"/>
  <circle cx="198" cy="86" r="10" fill="#F97316"/>
  <circle cx="314" cy="86" r="10" fill="#14B8A6"/>

  <rect x="113" y="363" width="286" height="74" rx="28" fill="#172033"/>
  <text x="256" y="414" text-anchor="middle" font-family="Inter, Arial, sans-serif" font-size="48" font-weight="800" fill="#FFFFFF">5173</text>

  <path d="M372 118L384 142L410 146L391 164L396 190L372 177L349 190L354 164L335 146L361 142L372 118Z" fill="#FACC15"/>
  <path d="M116 116C116 106 124 98 134 98C140 98 146 102 150 108C154 102 160 98 166 98C176 98 184 106 184 116C184 134 150 152 150 152C150 152 116 134 116 116Z" fill="#EF4444"/>
</svg>
